<svg width="55" height="55" viewBox="0 0 55 55" fill="none" xmlns="http://www.w3.org/2000/svg">
<path d="M28.3594 12.0312C28.5873 12.0312 28.8059 11.9407 28.967 11.7795C29.1282 11.6184 29.2188 11.3998 29.2188 11.1719C29.2188 10.944 29.1282 10.7254 28.967 10.5642C28.8059 10.403 28.5873 10.3125 28.3594 10.3125C28.1315 10.3125 27.9129 10.403 27.7517 10.5642C27.5905 10.7254 27.5 10.944 27.5 11.1719C27.5 11.3998 27.5905 11.6184 27.7517 11.7795C27.9129 11.9407 28.1315 12.0312 28.3594 12.0312ZM41.25 15.4688C41.25 15.9246 41.0689 16.3618 40.7466 16.6841C40.4243 17.0064 39.9871 17.1875 39.5312 17.1875C39.0754 17.1875 38.6382 17.0064 38.3159 16.6841C37.9936 16.3618 37.8125 15.9246 37.8125 15.4688C37.8125 15.0129 37.9936 14.5757 38.3159 14.2534C38.6382 13.9311 39.0754 13.75 39.5312 13.75C39.9871 13.75 40.4243 13.9311 40.7466 14.2534C41.0689 14.5757 41.25 15.0129 41.25 15.4688ZM38.6719 24.0625C39.0104 24.0625 39.3457 23.9958 39.6585 23.8663C39.9713 23.7367 40.2555 23.5468 40.4949 23.3074C40.7343 23.068 40.9242 22.7838 41.0538 22.471C41.1833 22.1582 41.25 21.8229 41.25 21.4844C41.25 21.1458 41.1833 20.8106 41.0538 20.4978C40.9242 20.185 40.7343 19.9008 40.4949 19.6614C40.2555 19.422 39.9713 19.2321 39.6585 19.1025C39.3457 18.9729 39.0104 18.9062 38.6719 18.9062C37.9881 18.9062 37.3324 19.1779 36.8489 19.6614C36.3654 20.1449 36.0938 20.8006 36.0938 21.4844C36.0938 22.1681 36.3654 22.8239 36.8489 23.3074C37.3324 23.7909 37.9881 24.0625 38.6719 24.0625ZM26.6406 32.6562C27.3244 32.6562 27.9801 32.3846 28.4636 31.9011C28.9471 31.4176 29.2188 30.7619 29.2188 30.0781C29.2188 29.3944 28.9471 28.7386 28.4636 28.2551C27.9801 27.7716 27.3244 27.5 26.6406 27.5C25.9569 27.5 25.3011 27.7716 24.8176 28.2551C24.3341 28.7386 24.0625 29.3944 24.0625 30.0781C24.0625 30.7619 24.3341 31.4176 24.8176 31.9011C25.3011 32.3846 25.9569 32.6562 26.6406 32.6562ZM18.9062 28.3594C18.9062 29.0431 18.6346 29.6989 18.1511 30.1824C17.6676 30.6659 17.0119 30.9375 16.3281 30.9375C15.6444 30.9375 14.9886 30.6659 14.5051 30.1824C14.0216 29.6989 13.75 29.0431 13.75 28.3594C13.75 27.6756 14.0216 27.0199 14.5051 26.5364C14.9886 26.0529 15.6444 25.7812 16.3281 25.7812C17.0119 25.7812 17.6676 26.0529 18.1511 26.5364C18.6346 27.0199 18.9062 27.6756 18.9062 28.3594ZM34.375 29.2188C34.8308 29.2188 35.268 29.0377 35.5903 28.7153C35.9127 28.393 36.0938 27.9558 36.0938 27.5C36.0938 27.0442 35.9127 26.607 35.5903 26.2847C35.268 25.9623 34.8308 25.7812 34.375 25.7812C33.9192 25.7812 33.482 25.9623 33.1597 26.2847C32.8373 26.607 32.6562 27.0442 32.6562 27.5C32.6562 27.9558 32.8373 28.393 33.1597 28.7153C33.482 29.0377 33.9192 29.2188 34.375 29.2188ZM27.5 24.0625C27.9558 24.0625 28.393 23.8814 28.7153 23.5591C29.0377 23.2368 29.2188 22.7996 29.2188 22.3438C29.2188 21.8879 29.0377 21.4507 28.7153 21.1284C28.393 20.8061 27.9558 20.625 27.5 20.625C27.0442 20.625 26.607 20.8061 26.2847 21.1284C25.9623 21.4507 25.7812 21.8879 25.7812 22.3438C25.7812 22.7996 25.9623 23.2368 26.2847 23.5591C26.607 23.8814 27.0442 24.0625 27.5 24.0625ZM20.625 22.3438C20.625 22.7996 20.4439 23.2368 20.1216 23.5591C19.7993 23.8814 19.3621 24.0625 18.9062 24.0625C18.4504 24.0625 18.0132 23.8814 17.6909 23.5591C17.3686 23.2368 17.1875 22.7996 17.1875 22.3438C17.1875 21.8879 17.3686 21.4507 17.6909 21.1284C18.0132 20.8061 18.4504 20.625 18.9062 20.625C19.3621 20.625 19.7993 20.8061 20.1216 21.1284C20.4439 21.4507 20.625 21.8879 20.625 22.3438ZM14.6094 36.0938C14.8373 36.0938 15.0559 36.0032 15.217 35.842C15.3782 35.6809 15.4688 35.4623 15.4688 35.2344C15.4688 35.0065 15.3782 34.7879 15.217 34.6267C15.0559 34.4655 14.8373 34.375 14.6094 34.375C14.3815 34.375 14.1629 34.4655 14.0017 34.6267C13.8405 34.7879 13.75 35.0065 13.75 35.2344C13.75 35.4623 13.8405 35.6809 14.0017 35.842C14.1629 36.0032 14.3815 36.0938 14.6094 36.0938ZM25.7812 37.8125C25.7812 38.2683 25.6002 38.7055 25.2778 39.0278C24.9555 39.3502 24.5183 39.5312 24.0625 39.5312C23.6067 39.5312 23.1695 39.3502 22.8472 39.0278C22.5248 38.7055 22.3438 38.2683 22.3438 37.8125C22.3438 37.3567 22.5248 36.9195 22.8472 36.5972C23.1695 36.2748 23.6067 36.0938 24.0625 36.0938C24.5183 36.0938 24.9555 36.2748 25.2778 36.5972C25.6002 36.9195 25.7812 37.3567 25.7812 37.8125ZM32.6562 16.3281C32.6562 16.556 32.5657 16.7746 32.4045 16.9358C32.2434 17.097 32.0248 17.1875 31.7969 17.1875C31.569 17.1875 31.3504 17.097 31.1892 16.9358C31.028 16.7746 30.9375 16.556 30.9375 16.3281C30.9375 16.1002 31.028 15.8816 31.1892 15.7205C31.3504 15.5593 31.569 15.4688 31.7969 15.4688C32.0248 15.4688 32.2434 15.5593 32.4045 15.7205C32.5657 15.8816 32.6562 16.1002 32.6562 16.3281Z" fill="#F8F9FA"/>
<path d="M31.7006 1.73045C34.3063 1.86795 36.5647 3.2103 38.0445 4.75889L47.752 14.5059C49.3573 16.1387 49.9177 18.3267 49.8334 20.4494L49.8438 27.4533C49.8438 28.0428 49.7681 28.6994 49.4794 29.4212C49.1958 30.1259 48.7438 30.8065 48.1078 31.5061C46.8652 32.8708 44.7614 34.4744 41.3016 36.6331C40.3906 37.2003 39.3989 38.2023 38.3195 39.5601C37.2505 40.9008 36.1934 42.4614 35.1089 44.065L35.0917 44.0891C34.1911 45.4228 33.2664 46.7875 32.3486 47.9872C31.4342 49.1817 30.4528 50.3109 29.4113 51.1153C28.4436 51.8647 26.4464 52.834 24.2 53.1641C21.9141 53.4992 19.0695 53.2053 16.8334 50.9726C15.0734 49.2144 13.133 47.0453 11.4314 45.1255L10.9261 44.5548C9.4136 42.8481 8.16922 41.4422 7.40094 40.6997C6.10672 39.4484 5.58766 37.7417 5.36078 36.5472C5.22422 35.816 5.15575 35.0738 5.15625 34.33V34.2956L5.16485 29.0036C5.15542 28.7287 5.15542 28.4535 5.16485 28.1786V28.1545C5.2336 26.3842 5.69766 24.803 6.24594 23.6892C7.63125 20.8705 10.1578 19.3305 12.9508 17.708C16.9761 15.3705 18.5402 13.1189 20.7006 10.0114C21.6901 8.56099 22.7277 7.14396 23.8116 5.76264C26.1903 2.76858 28.9884 1.58608 31.7006 1.73045ZM8.60063 28.9572C8.67116 30.6966 9.37539 32.3502 10.5806 33.6064C12.141 35.2645 13.6519 36.9685 15.1113 38.7162L15.632 39.335C16.7338 40.6412 17.6602 41.7395 18.4628 42.5817L18.5384 42.659L18.602 42.7467C19.5302 44.0048 20.8588 44.5548 22.2767 44.6666C23.7394 44.7817 25.135 44.4087 25.8913 44.0048C26.5856 43.6336 27.6891 42.5851 29.0159 40.7908C30.2981 39.0548 31.6611 36.7964 32.9175 34.2423C34.045 31.9461 35.9116 30.1259 37.7025 28.8283C39.4831 27.5392 41.3531 26.6523 42.6559 26.3189C43.9966 25.9803 45.4059 24.4455 46.0677 22.2558C46.2533 21.6405 46.3616 21.0355 46.3959 20.4597V19.6519C46.322 18.5381 45.9491 17.5773 45.3045 16.919L45.3011 16.9173L35.5833 7.15827L35.5695 7.14452C34.552 6.07546 33.0688 5.24358 31.5202 5.1628C30.0678 5.08717 28.2889 5.65264 26.5031 7.90077C25.5734 9.09142 24.6832 10.3124 23.8339 11.5617C21.5136 14.9012 19.4047 17.9331 14.6781 20.6814C11.7734 22.3692 10.1922 23.452 9.3311 25.2051C8.89492 26.132 8.64721 27.1363 8.60235 28.1597L8.60063 28.9572Z" fill="#F8F9FA"/>
</svg>
