<svg width="55" height="55" viewBox="0 0 55 55" fill="none" xmlns="http://www.w3.org/2000/svg">
<path fill-rule="evenodd" clip-rule="evenodd" d="M13.7492 6.875C13.1414 6.875 12.5585 7.11644 12.1287 7.54621C11.699 7.97598 11.4575 8.55888 11.4575 9.16667V18.3333C11.4575 18.9411 11.699 19.524 12.1287 19.9538C12.5585 20.3836 13.1414 20.625 13.7492 20.625H22.9159V48.125C22.9159 48.7328 23.1573 49.3157 23.5871 49.7455C24.0168 50.1752 24.5997 50.4167 25.2075 50.4167H32.0825C32.6903 50.4167 33.2732 50.1752 33.703 49.7455C34.1327 49.3157 34.3742 48.7328 34.3742 48.125V20.625H43.5409C44.1486 20.625 44.7315 20.3836 45.1613 19.9538C45.5911 19.524 45.8325 18.9411 45.8325 18.3333V16.0417C45.8324 15.4339 45.5909 14.8511 45.1611 14.4215L43.6554 12.9158C41.7402 11.0006 39.4665 9.48141 36.9642 8.44493C34.4618 7.40844 31.7798 6.87498 29.0713 6.875H13.7492Z" fill="#F8F9FA"/>
</svg>
